<svg class="w-10 h-10 text-white rounded-full" xmlns="http://www.w3.org/2000/svg" xmlns:xlink="http://www.w3.org/1999/xlink" width="512" zoomAndPan="magnify" viewBox="0 0 384 383.999986" height="512" preserveAspectRatio="xMidYMid meet" version="1.0">
	<defs>
		<clipPath id="id1">
			<path d="M 154 1.441406 L 373 1.441406 L 373 309 L 154 309 Z M 154 1.441406 " clip-rule="nonzero">
			</path>
		</clipPath>
		<clipPath id="id2">
			<path d="M 6 234 L 315 234 L 315 382.441406 L 6 382.441406 Z M 6 234 " clip-rule="nonzero">
			</path>
		</clipPath>
	</defs>
	<g clip-path="url(#id1)">
		<path fill="#27963c" d="M 231.160156 56.789062 C 288.089844 23.652344 328.683594 39.960938 372.015625 1.519531 C 372.015625 1.519531 383.992188 193.9375 246.816406 236.894531 C 215.109375 246.828125 191.042969 272.878906 184.476562 305.445312 C 184.289062 306.375 184.105469 307.320312 183.929688 308.277344 C 183.929688 308.277344 161.914062 231.324219 270.386719 116.835938 C 184.996094 175.378906 158.023438 255.457031 158.023438 255.457031 C 158.023438 255.457031 130.476562 115.386719 231.160156 56.789062 " fill-opacity="1" fill-rule="nonzero">
		</path>
	</g>
	<path fill="#40b93c" d="M 222.925781 90.382812 C 185.898438 116.242188 168.738281 152.539062 161.683594 187.5625 C 167.585938 145.515625 186.007812 96.578125 235.820312 67.585938 C 284.324219 39.355469 320.96875 47.007812 357.550781 26.121094 C 317.917969 64.382812 276.269531 53.121094 222.925781 90.382812 " fill-opacity="1" fill-rule="nonzero">
	</path>
	<path fill="#80cc28" d="M 95.292969 141.273438 C 59.515625 118.472656 32.96875 127.917969 6.082031 102.054688 C 6.082031 102.054688 0 171.890625 32.988281 220.640625 C 58.625 258.523438 97.242188 248.988281 118.539062 263.738281 C 118.539062 263.738281 96.636719 212.429688 68.492188 178.898438 C 121.925781 218.785156 137.207031 271.015625 137.207031 271.015625 C 137.207031 271.015625 158.566406 181.589844 95.292969 141.273438 " fill-opacity="1" fill-rule="nonzero">
	</path>
	<path fill="#adda1a" d="M 98.671875 162.6875 C 120.109375 178.382812 129.726562 199.949219 133.421875 220.636719 C 130.5 195.835938 120.304688 166.8125 91.386719 149.113281 C 63.230469 131.878906 41.582031 135.902344 20.339844 123.136719 C 43.148438 146.15625 67.789062 140.078125 98.671875 162.6875 " fill-opacity="1" fill-rule="nonzero">
	</path>
	<g clip-path="url(#id2)">
		<path fill="#228944" d="M 303.5 234.1875 C 298.089844 234.1875 293.554688 238.234375 292.910156 243.605469 C 284.976562 309.75 228.65625 361.023438 160.351562 361.023438 C 92.046875 361.023438 35.722656 309.75 27.789062 243.605469 C 27.144531 238.234375 22.609375 234.1875 17.199219 234.1875 C 10.820312 234.1875 5.84375 239.757812 6.597656 246.089844 C 15.765625 322.847656 81.101562 382.359375 160.351562 382.359375 C 239.597656 382.359375 304.933594 322.847656 314.101562 246.089844 C 314.859375 239.757812 309.878906 234.1875 303.5 234.1875 " fill-opacity="1" fill-rule="nonzero">
		</path>
	</g>
</svg>
